<svg width="54" height="47" viewBox="0 0 54 47" fill="none" xmlns="http://www.w3.org/2000/svg">
<path d="M29.3594 38V9.72543H35.3373V22.1922H35.7101L45.8851 9.72543H53.0504L42.5579 22.3855L53.1746 38H46.0231L38.278 26.3754L35.3373 29.9649V38H29.3594Z" fill="black"/>
<path d="M27.4043 19.6243H21.3573C21.2469 18.842 21.0214 18.1471 20.6808 17.5396C20.3403 16.9229 19.9031 16.3983 19.3693 15.9657C18.8354 15.5331 18.2188 15.2018 17.5193 14.9717C16.829 14.7416 16.0788 14.6265 15.2689 14.6265C13.8055 14.6265 12.5307 14.9901 11.4446 15.7172C10.3586 16.4351 9.51641 17.4844 8.91816 18.865C8.3199 20.2364 8.02077 21.9023 8.02077 23.8627C8.02077 25.8784 8.3199 27.5719 8.91816 28.9433C9.52562 30.3147 10.3724 31.3501 11.4585 32.0496C12.5445 32.7491 13.8009 33.0989 15.2275 33.0989C16.0282 33.0989 16.7691 32.9931 17.4502 32.7814C18.1405 32.5697 18.7526 32.2613 19.2864 31.8564C19.8203 31.4422 20.262 30.9406 20.6118 30.3515C20.9707 29.7625 21.2193 29.0906 21.3573 28.3358L27.4043 28.3635C27.2478 29.6612 26.8567 30.913 26.2308 32.1187C25.6141 33.3152 24.7812 34.3875 23.7319 35.3355C22.6919 36.2743 21.4494 37.0198 20.0043 37.572C18.5685 38.1151 16.944 38.3866 15.1308 38.3866C12.6089 38.3866 10.354 37.8159 8.36592 36.6746C6.38707 35.5333 4.82239 33.8812 3.6719 31.7183C2.53061 29.5554 1.95996 26.9368 1.95996 23.8627C1.95996 20.7794 2.53981 18.1563 3.69951 15.9933C4.85921 13.8304 6.43309 12.1829 8.42114 11.0508C10.4092 9.90951 12.6458 9.33887 15.1308 9.33887C16.7691 9.33887 18.2878 9.56897 19.6868 10.0292C21.095 10.4894 22.3421 11.1613 23.4282 12.0448C24.5143 12.9192 25.3979 13.9915 26.0789 15.2616C26.7692 16.5318 27.211 17.986 27.4043 19.6243Z" fill="black"/>
</svg>
