<?xml version="1.0" encoding="utf-8"?>
<!-- Generator: Adobe Illustrator 18.0.0, SVG Export Plug-In . SVG Version: 6.00 Build 0)  -->
<!DOCTYPE svg PUBLIC "-//W3C//DTD SVG 1.1//EN" "http://www.w3.org/Graphics/SVG/1.1/DTD/svg11.dtd">
<svg version="1.1" id="Capa_1" xmlns="http://www.w3.org/2000/svg" xmlns:xlink="http://www.w3.org/1999/xlink" x="0px" y="0px"
	 viewBox="0 0 115.1 115.1" enable-background="new 0 0 115.1 115.1" xml:space="preserve">
<g>
	<path fill="#FFFFFF" d="M57.5,1.5c-30.9,0-56,25.1-56,56c0,30.9,25.1,56,56,56c30.9,0,56-25.1,56-56C113.5,26.6,88.5,1.5,57.5,1.5z
		 M57.5,106.1C30.8,106.1,9,84.3,9,57.5S30.8,9,57.5,9C84.3,9,106,30.8,106,57.5C106,84.3,84.3,106.1,57.5,106.1z"/>
	<path fill="#FFFFFF" d="M79,45.3L57.3,67L35.6,45.3c-1.5-1.5-3.8-1.5-5.3,0c-1.5,1.5-1.5,3.8,0,5.3l24.3,24.3
		c0.7,0.7,1.7,1.1,2.7,1.1c1,0,1.9-0.4,2.7-1.1l24.3-24.3c1.5-1.5,1.5-3.8,0-5.3C82.8,43.8,80.4,43.8,79,45.3z"/>
</g>
</svg>
